<svg id="ic_app_information" xmlns="http://www.w3.org/2000/svg" width="40" height="40" viewBox="0 0 40 40">
  <path id="Ellipse_165" data-name="Ellipse 165" d="M20,0A20,20,0,1,0,40,20,20,20,0,0,0,20,0Z" transform="translate(0 0)" fill="#6b5dd1"/>
  <g id="svgexport-17_1_" data-name="svgexport-17 (1)" transform="translate(12.075 12.075)">
    <path id="Layer_2" data-name="Layer 2" d="M16.587,4.106C15.442,2.8,12.984,2,10.006,2s-5.436.8-6.581,2.106c-1.906,2.21-1.906,9.608,0,11.8,1.145,1.305,3.6,2.106,6.581,2.106s5.436-.8,6.581-2.106c1.906-2.21,1.906-9.592,0-11.8ZM10.006,5.8a1,1,0,1,1-1,1A1,1,0,0,1,10.006,5.8Zm.8,8.607H9.2a.8.8,0,1,1,0-1.6v-2.4a.8.8,0,1,1,0-1.6h.8a.8.8,0,0,1,.8.8v3.2a.8.8,0,0,1,0,1.6Z" transform="translate(-1.995 -2)" fill="#fff"/>
  </g>
</svg>
