<svg xmlns="http://www.w3.org/2000/svg" width="30.533" height="19.634" viewBox="0 0 30.533 19.634">
  <g id="ic_dashboard" transform="translate(0 -91.38)">
    <path id="Path_125" data-name="Path 125" d="M5.181,95.191l5.088,5.088a7.96,7.96,0,0,1,4.1-1.7v-7.2A15.122,15.122,0,0,0,5.181,95.191ZM3.916,96.456A15.179,15.179,0,0,0,0,106.542a.894.894,0,0,0,.895.895H6.321a.894.894,0,0,0,.895-.895,7.97,7.97,0,0,1,1.789-5Zm18.262,3.091a.892.892,0,0,0-1.071-.081l-7.763,4.952a3.578,3.578,0,1,0,5.167,4.527L22.4,100.6A.9.9,0,0,0,22.178,99.547Zm4.439-3.091-2.629,2.629a2.672,2.672,0,0,1,.033,2.267l-1.176,2.525a7.762,7.762,0,0,1,.473,2.664.894.894,0,0,0,.895.895h5.427a.894.894,0,0,0,.895-.895A15.179,15.179,0,0,0,26.617,96.456ZM16.161,91.38v7.2a8.021,8.021,0,0,1,2.144.55l1.84-1.174a2.553,2.553,0,0,1,2.577-.136l2.63-2.63A15.122,15.122,0,0,0,16.161,91.38Z" transform="translate(0 0)" fill="#acbfd6"/>
  </g>
</svg>
