<svg xmlns="http://www.w3.org/2000/svg" width="20.784" height="24.001" viewBox="0 0 20.784 24.001">
  <path id="ic_delete" d="M157.64,124.017v0h-3.734v-1.225A1.788,1.788,0,0,0,152.118,121h-5.254a1.788,1.788,0,0,0-1.788,1.788v1.225h-3.734v0A2.388,2.388,0,0,0,139.1,126.4v.074a2.388,2.388,0,0,0,2.244,2.383v12.67A3.474,3.474,0,0,0,144.817,145h9.35a3.474,3.474,0,0,0,3.474-3.474v-12.67a2.388,2.388,0,0,0,2.244-2.383V126.4a2.388,2.388,0,0,0-2.244-2.383Zm-10.085,15.6a1.049,1.049,0,1,1-2.1,0v-8a1.049,1.049,0,1,1,2.1,0Zm5.971,0a1.049,1.049,0,1,1-2.1,0v-8a1.049,1.049,0,1,1,2.1,0Z" transform="translate(-139.1 -121)" fill="#acbfd6"/>
</svg>
