<svg xmlns="http://www.w3.org/2000/svg" width="24.026" height="24.001" viewBox="0 0 24.026 24.001">
  <g id="ic_edite" transform="translate(0 -0.247)">
    <path id="Path_149" data-name="Path 149" d="M14.838,4.259,1.618,17.48a.527.527,0,0,0-.137.241L.016,23.6a.52.52,0,0,0,.5.646.517.517,0,0,0,.126-.016l5.881-1.466a.52.52,0,0,0,.241-.137L19.99,9.411Zm8.427-1.8L21.793.985a2.665,2.665,0,0,0-3.68,0l-1.8,1.8,5.152,5.152,1.8-1.8a2.6,2.6,0,0,0,0-3.68Zm0,0" transform="translate(0)" fill="#acbfd6"/>
  </g>
</svg>
