<svg xmlns="http://www.w3.org/2000/svg" width="20.154" height="18.322" viewBox="0 0 20.154 18.322">
  <path id="ic_filters" d="M15.657,4.748A2.748,2.748,0,1,1,18.406,7.5,2.748,2.748,0,0,1,15.657,4.748ZM1.916,5.664H12.909a.916.916,0,1,0,0-1.832H1.916a.916.916,0,1,0,0,1.832Zm5.5,2.748a2.748,2.748,0,0,0-2.583,1.832H1.916a.916.916,0,1,0,0,1.832H4.829A2.748,2.748,0,1,0,7.413,8.413Zm12.825,1.832H12.909a.916.916,0,1,0,0,1.832h7.329a.916.916,0,1,0,0-1.832ZM9.245,16.657H1.916a.916.916,0,1,0,0,1.832H9.245a.916.916,0,1,0,0-1.832Zm10.993,0H17.325a2.748,2.748,0,1,0,0,1.832h2.913a.916.916,0,1,0,0-1.832Z" transform="translate(-1 -2)" fill="#6b1d4a"/>
</svg>
