<svg xmlns="http://www.w3.org/2000/svg" width="22.994" height="25.728" viewBox="0 0 22.994 25.728">
  <g id="ic_logout" transform="translate(-27.204)">
    <path id="Path_129" data-name="Path 129" d="M38.516,21.63v1.282a2.745,2.745,0,0,1-1.4,2.43,2.744,2.744,0,0,1-2.805,0l-5.7-3.292a2.745,2.745,0,0,1-1.4-2.43V2.806A2.809,2.809,0,0,1,30.01,0H42.566a2.809,2.809,0,0,1,2.806,2.806V6.35a.921.921,0,1,1-1.842,0V2.806a.965.965,0,0,0-.964-.964h-11l5.55,3.2a2.745,2.745,0,0,1,1.4,2.429V19.788h4.049a.965.965,0,0,0,.964-.963V15.717a.921.921,0,1,1,1.842,0v3.107a2.809,2.809,0,0,1-2.806,2.806Zm8.537-9.894-1.015,1.015a.921.921,0,0,0,1.3,1.3l2.587-2.587a.921.921,0,0,0,0-1.3L47.341,7.577a.921.921,0,1,0-1.3,1.3l1.015,1.014h-6.8a.921.921,0,0,0,0,1.843h6.8Z" transform="translate(0)" fill="#6b1d4a" fill-rule="evenodd"/>
  </g>
</svg>
