<svg id="ic_lighting" xmlns="http://www.w3.org/2000/svg" width="32.4" height="32.4" viewBox="0 0 32.4 32.4">
  <path id="Path_5053" data-name="Path 5053" d="M8.817,7.474,6.132,4.79A.949.949,0,0,0,4.79,6.132L7.474,8.817A.949.949,0,0,0,8.817,7.474ZM4.809,15.251H.949a.949.949,0,1,0,0,1.9h3.86a.949.949,0,1,0,0-1.9Zm26.641,0h-3.86a.949.949,0,0,0,0,1.9h3.86a.949.949,0,0,0,0-1.9ZM27.61,4.79a.949.949,0,0,0-1.342,0L23.583,7.474a.949.949,0,0,0,1.342,1.342L27.61,6.132A.949.949,0,0,0,27.61,4.79ZM16.2,0a.949.949,0,0,0-.949.949v3.86a.949.949,0,1,0,1.9,0V.949A.949.949,0,0,0,16.2,0Zm5.316,9.5A8.581,8.581,0,0,0,14.15,7.9a8.416,8.416,0,0,0-6.227,6.132,8.588,8.588,0,0,0,2.3,8.258,4.664,4.664,0,0,1,1.234,3.253v.209a.94.94,0,0,0,.949.949H20a.94.94,0,0,0,.949-.949v-.209a4.712,4.712,0,0,1,1.31-3.31A8.571,8.571,0,0,0,21.516,9.5ZM16.2,13.352a2.776,2.776,0,0,0-2.748,2.05.949.949,0,1,1-1.843-.456,4.687,4.687,0,0,1,4.59-3.492.949.949,0,0,1,0,1.9ZM12.4,28.6v.949A2.851,2.851,0,0,0,15.251,32.4h1.9A2.851,2.851,0,0,0,20,29.552V28.6Z" fill="#6b1d4a"/>
</svg>
