<svg id="ic_languages_en" xmlns="http://www.w3.org/2000/svg" width="40" height="40" viewBox="0 0 40 40">
  <path id="Ellipse_165" data-name="Ellipse 165" d="M20,0A20,20,0,1,0,40,20,20,20,0,0,0,20,0Z" fill="#fff"/>
  <g id="svgexport-17_5_" data-name="svgexport-17 (5)" transform="translate(12.075 12.075)">
    <path id="Path_5086" data-name="Path 5086" d="M10.281,11.463a.333.333,0,0,0-.256-.12H5.989a.334.334,0,0,0-.328.394c.48,2.6,1.4,4.276,2.346,4.276s1.866-1.678,2.346-4.276A.334.334,0,0,0,10.281,11.463ZM15.633,5.57a.333.333,0,0,0-.318-.232H11.558a.334.334,0,0,0-.332.367c.077.766.116,1.541.116,2.3s-.039,1.535-.116,2.3a.334.334,0,0,0,.332.367h3.757a.333.333,0,0,0,.318-.232,7.993,7.993,0,0,0,0-4.874ZM11.049,4.392a.334.334,0,0,0,.329.278h3.367a.333.333,0,0,0,.293-.493A8.073,8.073,0,0,0,10.318.342.333.333,0,0,0,9.93.824,11.439,11.439,0,0,1,11.049,4.392Zm-.831.945H5.795a.334.334,0,0,0-.332.3,22.477,22.477,0,0,0,0,4.742.333.333,0,0,0,.332.3h4.424a.334.334,0,0,0,.332-.3,22.2,22.2,0,0,0,.125-2.371,22.2,22.2,0,0,0-.125-2.371.333.333,0,0,0-.332-.3ZM1.267,4.67H4.635a.334.334,0,0,0,.329-.278A11.439,11.439,0,0,1,6.083.824.333.333,0,0,0,5.7.342,8.073,8.073,0,0,0,.974,4.177a.333.333,0,0,0,.293.493Zm3.435,5.9a.333.333,0,0,0,.085-.257c-.077-.766-.116-1.541-.116-2.3s.039-1.535.116-2.3a.334.334,0,0,0-.332-.367H.7a.333.333,0,0,0-.318.232,7.993,7.993,0,0,0,0,4.874.333.333,0,0,0,.318.232H4.455a.333.333,0,0,0,.247-.11Zm.262,1.055a.334.334,0,0,0-.329-.278H1.267a.333.333,0,0,0-.293.493A8.073,8.073,0,0,0,5.7,15.671a.324.324,0,0,0,.1.014.333.333,0,0,0,.291-.5A11.439,11.439,0,0,1,4.964,11.621Zm9.782-.278H11.378a.334.334,0,0,0-.329.278A11.439,11.439,0,0,1,9.93,15.189a.333.333,0,0,0,.291.5.326.326,0,0,0,.1-.014,8.073,8.073,0,0,0,4.721-3.835.333.333,0,0,0-.293-.493ZM5.732,4.55a.333.333,0,0,0,.256.12h4.036a.334.334,0,0,0,.328-.394C9.873,1.678,8.952,0,8.007,0S6.14,1.678,5.661,4.276a.334.334,0,0,0,.072.274Z" fill="#6b1d4a"/>
  </g>
</svg>
