<svg id="ic_logout_en" xmlns="http://www.w3.org/2000/svg" width="50" height="50" viewBox="0 0 50 50">
  <circle id="Ellipse_9" data-name="Ellipse 9" cx="25" cy="25" r="25" fill="#fff"/>
  <g id="svgexport-17_4_" data-name="svgexport-17 (4)" transform="translate(13.006 12)">
    <path id="Path_129" data-name="Path 129" d="M38.886,21.63v1.282a2.745,2.745,0,0,0,1.4,2.43,2.744,2.744,0,0,0,2.805,0l5.7-3.292a2.745,2.745,0,0,0,1.4-2.43V2.806A2.809,2.809,0,0,0,47.392,0H34.836A2.809,2.809,0,0,0,32.03,2.806V6.35a.921.921,0,1,0,1.842,0V2.806a.965.965,0,0,1,.964-.964h11l-5.55,3.2a2.745,2.745,0,0,0-1.4,2.429V19.788H34.836a.965.965,0,0,1-.964-.963V15.717a.921.921,0,1,0-1.842,0v3.107a2.809,2.809,0,0,0,2.806,2.806Zm-8.537-9.894,1.015,1.015a.921.921,0,0,1-1.3,1.3l-2.587-2.587a.921.921,0,0,1,0-1.3l2.587-2.587a.921.921,0,1,1,1.3,1.3L30.349,9.894h6.8a.921.921,0,0,1,0,1.843h-6.8Z" transform="translate(-27.204)" fill="#6b5dd1" fill-rule="evenodd"/>
  </g>
</svg>
