<svg xmlns="http://www.w3.org/2000/svg" width="18.001" height="24.001" viewBox="0 0 18.001 24.001">
  <g id="ic_lock" transform="translate(-54.818)">
    <path id="Path_150" data-name="Path 150" d="M72.381,12.438A1.446,1.446,0,0,0,71.319,12h-11.5V7A3.854,3.854,0,0,1,60.99,4.172a4,4,0,0,1,5.656,0A3.854,3.854,0,0,1,67.819,7a1.014,1.014,0,0,0,1,1h1a1.014,1.014,0,0,0,1-1,6.742,6.742,0,0,0-2.055-4.946,6.979,6.979,0,0,0-9.892,0A6.742,6.742,0,0,0,56.818,7v5h-.5a1.494,1.494,0,0,0-1.5,1.5v9a1.494,1.494,0,0,0,1.5,1.5h15a1.494,1.494,0,0,0,1.5-1.5v-9A1.445,1.445,0,0,0,72.381,12.438Z" transform="translate(0 0)" fill="#6b1d4a"/>
  </g>
</svg>
