<svg xmlns="http://www.w3.org/2000/svg" width="20.829" height="25" viewBox="0 0 20.829 25">
  <g id="ic_notifications" transform="translate(-2.004)">
    <path id="Path_5059" data-name="Path 5059" d="M22.186,17.618a6.977,6.977,0,0,1-2.478-5.339v-2.9a7.3,7.3,0,0,0-6.25-7.208V1.042a1.042,1.042,0,1,0-2.083,0V2.167a7.3,7.3,0,0,0-6.25,7.208v2.9a6.984,6.984,0,0,1-2.487,5.347,1.825,1.825,0,0,0,1.185,3.207H21.01a1.823,1.823,0,0,0,1.176-3.216ZM12.417,25a3.913,3.913,0,0,0,3.827-3.125H8.589A3.913,3.913,0,0,0,12.417,25Z" transform="translate(0)" fill="#acbfd6"/>
  </g>
</svg>
