<svg id="ic_profile" xmlns="http://www.w3.org/2000/svg" width="15.948" height="19.116" viewBox="0 0 15.948 19.116">
  <path id="Path_140" data-name="Path 140" d="M7.853,9.208a4.455,4.455,0,0,0,3.255-1.349A4.455,4.455,0,0,0,12.458,4.6a4.455,4.455,0,0,0-1.349-3.255A4.456,4.456,0,0,0,7.853,0,4.455,4.455,0,0,0,4.6,1.349,4.455,4.455,0,0,0,3.249,4.6,4.455,4.455,0,0,0,4.6,7.859,4.456,4.456,0,0,0,7.853,9.208ZM15.909,14.7a11.373,11.373,0,0,0-.155-1.208,9.509,9.509,0,0,0-.3-1.214,6,6,0,0,0-.5-1.133,4.274,4.274,0,0,0-.753-.981,3.32,3.32,0,0,0-1.081-.679,3.738,3.738,0,0,0-1.38-.25A1.4,1.4,0,0,0,11,9.551q-.389.253-.78.5a4.466,4.466,0,0,1-1.009.444,3.917,3.917,0,0,1-2.467,0,4.458,4.458,0,0,1-1.008-.444c-.29-.185-.553-.355-.78-.5A1.4,1.4,0,0,0,4.2,9.234a3.732,3.732,0,0,0-1.38.25,3.316,3.316,0,0,0-1.082.679,4.274,4.274,0,0,0-.753.981,6.012,6.012,0,0,0-.5,1.133,9.532,9.532,0,0,0-.3,1.214A11.333,11.333,0,0,0,.038,14.7Q0,15.263,0,15.828a3.174,3.174,0,0,0,.943,2.4,3.393,3.393,0,0,0,2.429.886h9.2a3.393,3.393,0,0,0,2.429-.886,3.173,3.173,0,0,0,.943-2.4C15.948,15.443,15.935,15.063,15.909,14.7Zm0,0" transform="translate(0)" fill="#6b1d4a"/>
</svg>
