<svg xmlns="http://www.w3.org/2000/svg" width="26.163" height="25" viewBox="0 0 26.163 25">
  <g id="ic_reports" transform="translate(-2.5 -3.5)">
    <path id="Path_128" data-name="Path 128" d="M17.111,11.564l5.477-4.8a2.638,2.638,0,0,0,.762.878l-5.477,4.8a2.638,2.638,0,0,0-.762-.878Zm-1.529,4.145a2.035,2.035,0,1,0-2.035-2.035A2.037,2.037,0,0,0,15.581,15.709Zm9.3-8.14a2.035,2.035,0,1,0-2.035-2.035A2.037,2.037,0,0,0,24.884,7.57ZM8.023,14.547H4.535A2.037,2.037,0,0,0,2.5,16.581v9.884A2.037,2.037,0,0,0,4.535,28.5H8.023a2.037,2.037,0,0,0,2.035-2.035V16.581A2.037,2.037,0,0,0,8.023,14.547Zm9.3,4.07H13.837A2.037,2.037,0,0,0,11.8,20.651v5.814A2.037,2.037,0,0,0,13.837,28.5h3.488a2.037,2.037,0,0,0,2.035-2.035V20.651A2.037,2.037,0,0,0,17.326,18.616Zm9.3-8.14H23.14A2.037,2.037,0,0,0,21.1,12.512V26.465A2.037,2.037,0,0,0,23.14,28.5h3.488a2.037,2.037,0,0,0,2.035-2.035V12.512A2.037,2.037,0,0,0,26.628,10.477ZM6.279,7.57A2.035,2.035,0,1,0,8.314,9.6,2.037,2.037,0,0,0,6.279,7.57ZM8.843,10.1a2.6,2.6,0,0,1-.477,1.064l4.645,2.023a2.6,2.6,0,0,1,.477-1.064Z" transform="translate(0 0)" fill="#acbfd6"/>
  </g>
</svg>
