<svg xmlns="http://www.w3.org/2000/svg" width="24.104" height="22.823" viewBox="0 0 24.104 22.823">
  <g id="ic_system_settings" transform="translate(-1 -1.804)">
    <path id="Layer_2" data-name="Layer 2" d="M23.665,9.867a3.15,3.15,0,0,1-2.483-4.258,1.478,1.478,0,0,0-.442-1.663A11.851,11.851,0,0,0,17.206,1.9a1.486,1.486,0,0,0-1.679.466,3.142,3.142,0,0,1-4.949,0A1.486,1.486,0,0,0,8.9,1.9,11.907,11.907,0,0,0,5.6,3.745a1.494,1.494,0,0,0-.466,1.711A3.133,3.133,0,0,1,2.527,9.763a1.486,1.486,0,0,0-1.3,1.2A11.361,11.361,0,0,0,1,13.21,11.505,11.505,0,0,0,1.153,15.1a1.486,1.486,0,0,0,1.31,1.245A3.133,3.133,0,0,1,5.017,20.77a1.462,1.462,0,0,0,.41,1.752,11.939,11.939,0,0,0,3.5,2.017,1.607,1.607,0,0,0,.506.088A1.478,1.478,0,0,0,10.641,24a3.109,3.109,0,0,1,2.571-1.35,3.15,3.15,0,0,1,2.523,1.269,1.478,1.478,0,0,0,1.735.49,12.052,12.052,0,0,0,3.214-1.92,1.486,1.486,0,0,0,.434-1.7,3.133,3.133,0,0,1,2.515-4.331,1.486,1.486,0,0,0,1.261-1.221A11.65,11.65,0,0,0,25.1,13.21a11.536,11.536,0,0,0-.2-2.148A1.47,1.47,0,0,0,23.665,9.867Zm-6.6,3.342a4.017,4.017,0,1,1-4.017-4.017A4.017,4.017,0,0,1,17.069,13.21Z" transform="translate(0 0)" fill="#acbfd6"/>
  </g>
</svg>
