<svg xmlns="http://www.w3.org/2000/svg" width="26.403" height="25" viewBox="0 0 26.403 25">
  <g id="ic_setting" transform="translate(-1 -1.804)">
    <path id="Layer_2" data-name="Layer 2" d="M25.828,10.637a3.45,3.45,0,0,1-2.72-4.665,1.619,1.619,0,0,0-.484-1.822,12.981,12.981,0,0,0-3.872-2.244,1.628,1.628,0,0,0-1.839.51,3.441,3.441,0,0,1-5.421,0,1.628,1.628,0,0,0-1.839-.51A13.043,13.043,0,0,0,6.043,3.93,1.637,1.637,0,0,0,5.533,5.8a3.432,3.432,0,0,1-2.86,4.717,1.628,1.628,0,0,0-1.426,1.311A12.445,12.445,0,0,0,1,14.3a12.6,12.6,0,0,0,.167,2.068A1.628,1.628,0,0,0,2.6,17.73,3.432,3.432,0,0,1,5.4,22.58,1.6,1.6,0,0,0,5.849,24.5a13.078,13.078,0,0,0,3.837,2.209,1.76,1.76,0,0,0,.554.1,1.619,1.619,0,0,0,1.32-.686,3.406,3.406,0,0,1,2.816-1.479,3.45,3.45,0,0,1,2.764,1.391,1.619,1.619,0,0,0,1.9.537,13.2,13.2,0,0,0,3.52-2.1,1.628,1.628,0,0,0,.475-1.857,3.432,3.432,0,0,1,2.755-4.744,1.628,1.628,0,0,0,1.382-1.338A12.762,12.762,0,0,0,27.4,14.3a12.637,12.637,0,0,0-.221-2.353A1.611,1.611,0,0,0,25.828,10.637ZM18.6,14.3a4.4,4.4,0,1,1-4.4-4.4A4.4,4.4,0,0,1,18.6,14.3Z" transform="translate(0 0)" fill="#6b1d4a"/>
  </g>
</svg>
