<svg id="ic_search" xmlns="http://www.w3.org/2000/svg" width="15.136" height="15.136" viewBox="0 0 15.136 15.136">
  <path id="Path_142" data-name="Path 142" d="M13.341,10.482A6.142,6.142,0,1,0,4.655,1.8a6.022,6.022,0,0,0-.924,7.412.258.258,0,0,1-.036.308L.562,12.649A1.431,1.431,0,0,0,.343,14.7l.1.1a1.431,1.431,0,0,0,2.049-.219l3.127-3.127a.262.262,0,0,1,.314-.042A6.022,6.022,0,0,0,13.341,10.482ZM5.789,9.348a4.538,4.538,0,1,1,6.418,0A4.543,4.543,0,0,1,5.789,9.348Z" transform="translate(-0.001 0)" fill="#fff"/>
  <path id="Path_143" data-name="Path 143" d="M114.386,53.725a.634.634,0,0,1-.584-.881,4,4,0,0,1,5.23-2.12.634.634,0,1,1-.494,1.168,2.726,2.726,0,0,0-3.568,1.446A.634.634,0,0,1,114.386,53.725Z" transform="translate(-108.205 -47.951)" fill="#fff"/>
</svg>
