<svg id="ic_support_" data-name="ic_support " xmlns="http://www.w3.org/2000/svg" width="40" height="40" viewBox="0 0 40 40">
  <path id="Ellipse_165" data-name="Ellipse 165" d="M20,0A20,20,0,1,0,40,20,20,20,0,0,0,20,0Z" transform="translate(0 0)" fill="#6b1d4a"/>
  <g id="svgexport-17_4_" data-name="svgexport-17 (4)" transform="translate(12.075 12.075)">
    <path id="Path_5084" data-name="Path 5084" d="M170.938,45.764a4.842,4.842,0,0,0-4.286-4.613c-.047-.006-.1-.014-.154-.023a2.228,2.228,0,0,0-.363-.04.61.61,0,0,0-.653.548.633.633,0,0,0,.095.5.938.938,0,0,0,.675.29c.067.009.13.018.183.03,2.141.478,2.862,1.23,3.214,3.353.009.052.013.116.017.184.015.254.047.782.615.782h0a1.007,1.007,0,0,0,.151-.012c.528-.08.512-.563.5-.795a1.178,1.178,0,0,1,0-.168.227.227,0,0,0,0-.031Z" transform="translate(-157.45 -39.045)" fill="#fff"/>
    <path id="Path_5085" data-name="Path 5085" d="M12.765,1.277c.063,0,.123.009.173.017,3.515.541,5.132,2.206,5.58,5.749a2.07,2.07,0,0,1,.01.211c0,.277.014.853.632.865h.019a.607.607,0,0,0,.459-.174.968.968,0,0,0,.168-.741c0-.059-.005-.115,0-.163A7.164,7.164,0,0,0,13.09.01a.251.251,0,0,0-.044,0,.3.3,0,0,1-.043,0c-.036,0-.081,0-.128-.006S12.755,0,12.689,0a.636.636,0,0,0-.7.654C11.957,1.219,12.5,1.258,12.765,1.277Zm5.584,10.345q-.113-.086-.224-.174c-.384-.309-.792-.594-1.187-.869l-.246-.172a2.451,2.451,0,0,0-1.39-.528,1.8,1.8,0,0,0-1.5.95.8.8,0,0,1-.684.415,1.359,1.359,0,0,1-.551-.138A6.632,6.632,0,0,1,9.1,7.732c-.322-.724-.218-1.2.349-1.583a1.6,1.6,0,0,0,.879-1.4A8.023,8.023,0,0,0,7.507.894a1.6,1.6,0,0,0-1.09,0A3.154,3.154,0,0,0,4.454,2.506,3,3,0,0,0,4.5,4.928a19.545,19.545,0,0,0,4.289,6.529,20.79,20.79,0,0,0,6.507,4.32,3.6,3.6,0,0,0,.644.191c.06.013.111.025.149.035a.25.25,0,0,0,.063.009h.02a3.691,3.691,0,0,0,3.065-2.333c.385-1.088-.318-1.626-.884-2.058ZM13.293,4.156a.74.74,0,0,0-.778.449.6.6,0,0,0,.025.522.781.781,0,0,0,.59.312,1.394,1.394,0,0,1,1.293,1.392.659.659,0,0,0,.627.651h0a.618.618,0,0,0,.074,0c.4-.047.591-.34.574-.87a2.484,2.484,0,0,0-.775-1.68,2.313,2.313,0,0,0-1.63-.771Z" transform="translate(-4.219)" fill="#fff"/>
  </g>
</svg>
