<svg id="ic_tabel" xmlns="http://www.w3.org/2000/svg" width="26.158" height="23.978" viewBox="0 0 26.158 23.978">
  <path id="Path_148" data-name="Path 148" d="M22.888,0H3.27A3.274,3.274,0,0,0,0,3.27V20.708a3.274,3.274,0,0,0,3.27,3.27H22.888a3.274,3.274,0,0,0,3.27-3.27V3.27A3.274,3.274,0,0,0,22.888,0ZM8.174,7.629h3.815V10.9H8.174ZM5.994,10.9H2.18V7.629H5.994Zm8.174-3.27h3.815V10.9H14.169Zm5.995,0h3.815V10.9H20.163ZM2.18,13.079H5.994v3.27H2.18Zm5.994,0h3.815v3.27H8.174Zm3.815,5.45V21.8H8.174v-3.27Zm2.18,0h3.815V21.8H14.169Zm0-2.18v-3.27h3.815v3.27Zm5.995-3.27h3.815v3.27H20.163ZM2.18,20.708v-2.18H5.994V21.8H3.27A1.092,1.092,0,0,1,2.18,20.708ZM22.888,21.8H20.163v-3.27h3.815v2.18A1.092,1.092,0,0,1,22.888,21.8Zm0,0" fill="#fff"/>
</svg>
