<svg xmlns="http://www.w3.org/2000/svg" width="24.333" height="24.33" viewBox="0 0 24.333 24.33">
  <g id="ic_user_management" transform="translate(-4.995 -5)">
    <circle id="Ellipse_64" data-name="Ellipse 64" cx="3.192" cy="3.192" r="3.192" transform="translate(13.969 10.891)" fill="#6b5dd1"/>
    <path id="Path_382" data-name="Path 382" d="M28.33,14.565l-1.836-.307a9.646,9.646,0,0,0-.679-1.64l1.065-1.493A1.135,1.135,0,0,0,26.8,9.6L24.723,7.523a1.12,1.12,0,0,0-.8-.333,1.1,1.1,0,0,0-.7.24L21.706,8.511a9.714,9.714,0,0,0-1.641-.681l-.3-1.807A1.135,1.135,0,0,0,18.63,5H15.69a1.126,1.126,0,0,0-1.128,1L14.257,7.83a9.659,9.659,0,0,0-1.643.681L11.122,7.445A1.163,1.163,0,0,0,9.6,7.524L7.519,9.6a1.124,1.124,0,0,0-.094,1.5l1.081,1.513a9.734,9.734,0,0,0-.679,1.64l-1.808.3a1.136,1.136,0,0,0-1.024,1.134v2.94a1.124,1.124,0,0,0,1,1.129l1.835.307a9.815,9.815,0,0,0,.679,1.641L7.445,23.2a1.131,1.131,0,0,0,.074,1.525L9.6,26.807a1.135,1.135,0,0,0,.8.335,1.106,1.106,0,0,0,.7-.243l1.513-1.08a9.622,9.622,0,0,0,1.643.681l.3,1.808A1.138,1.138,0,0,0,15.69,29.33h2.94a1.123,1.123,0,0,0,1.128-1l.307-1.834a9.571,9.571,0,0,0,1.641-.681L23.2,26.882a1.163,1.163,0,0,0,1.524-.077L26.8,24.727a1.125,1.125,0,0,0,.1-1.5l-1.081-1.512a9.692,9.692,0,0,0,.679-1.643l1.806-.305a1.127,1.127,0,0,0,1.028-1.129v-2.94A1.128,1.128,0,0,0,28.33,14.565Zm-5.575,6.85A3.694,3.694,0,0,0,19.4,17.83H14.918a3.693,3.693,0,0,0-3.35,3.587,7.03,7.03,0,1,1,11.187,0Z" transform="translate(0 0)" fill="#6b5dd1"/>
  </g>
</svg>
