<svg xmlns="http://www.w3.org/2000/svg" width="27.898" height="35" viewBox="0 0 27.898 35">
  <g id="ic_upload_file" transform="translate(-5.435 -3)">
    <path id="Path_152" data-name="Path 152" d="M31.816,8.746,26.989,4.283A4.678,4.678,0,0,0,23.752,3H10.2A4.78,4.78,0,0,0,5.435,7.769V33.231A4.78,4.78,0,0,0,10.2,38h18.36a4.78,4.78,0,0,0,4.769-4.769V12.246A4.811,4.811,0,0,0,31.816,8.746ZM14.623,14.988c3.942-3.943,3.806-3.825,3.952-3.923a1.444,1.444,0,0,1,.8-.248h.015a1.5,1.5,0,0,1,1.021.423l3.733,3.748a1.454,1.454,0,1,1-2.056,2.056L20.85,15.8v5.148a1.458,1.458,0,0,1-2.917,0V15.8l-1.254,1.254a1.459,1.459,0,1,1-2.056-2.071Zm10.412,15.2h-11.3a1.458,1.458,0,1,1,0-2.917h11.3a1.458,1.458,0,0,1,0,2.917Z" fill="#acbfd6"/>
  </g>
</svg>
