<svg xmlns="http://www.w3.org/2000/svg" width="27.545" height="17.806" viewBox="0 0 27.545 17.806">
  <g id="ic_view" transform="translate(0 0)">
    <circle id="Ellipse_61" data-name="Ellipse 61" cx="4.241" cy="4.241" r="4.241" transform="translate(9.532 4.665)" fill="#acbfd6"/>
    <path id="Path_132" data-name="Path 132" d="M27.123,99.6c-3.26-3.939-8.194-7.731-13.35-7.731S3.681,95.66.423,99.6a1.844,1.844,0,0,0,0,2.349,27.605,27.605,0,0,0,4.829,4.569c5.775,4.2,11.254,4.213,17.042,0a27.605,27.605,0,0,0,4.829-4.569A1.844,1.844,0,0,0,27.123,99.6Zm-13.35-4.762a5.937,5.937,0,1,1-5.937,5.937A5.943,5.943,0,0,1,13.773,94.834Z" transform="translate(0 -91.866)" fill="#6b1d4a"/>
  </g>
</svg>
